<?xml version="1.0" standalone="no"?>
<!DOCTYPE svg PUBLIC "-//W3C//DTD SVG 20010904//EN"
 "http://www.w3.org/TR/2001/REC-SVG-20010904/DTD/svg10.dtd">
<svg version="1.0" xmlns="http://www.w3.org/2000/svg"
 width="670.000000pt" height="670.000000pt" viewBox="0 0 670.000000 670.000000"
 preserveAspectRatio="xMidYMid meet">
<metadata>
Created by potrace 1.11, written by Peter Selinger 2001-2013
</metadata>
<g transform="translate(0.000000,670.000000) scale(0.100000,-0.100000)"
fill="#000000" stroke="none">
<path d="M3101 5450 c-89 -24 -212 -76 -287 -122 -57 -34 -164 -131 -203 -182
-16 -23 -24 -27 -33 -18 -20 20 -63 14 -88 -13 -31 -33 -33 -91 -3 -114 20
-17 19 -18 -42 -49 -87 -46 -188 -132 -246 -212 -46 -62 -54 -69 -107 -84 -32
-9 -66 -16 -75 -16 -9 0 -52 -28 -95 -63 -75 -61 -79 -63 -107 -51 -66 28
-138 16 -235 -41 -14 -8 -37 -15 -51 -15 -32 0 -67 -36 -75 -78 -6 -31 -7 -31
-35 -17 -81 42 -145 -10 -137 -110 3 -41 1 -45 -20 -45 -52 0 -92 -51 -92
-118 0 -19 -11 -41 -34 -65 -55 -59 -59 -134 -11 -227 13 -25 29 -62 35 -83 7
-21 24 -53 40 -70 15 -18 33 -50 40 -72 53 -169 223 -397 335 -450 l40 -19 0
-136 c1 -135 20 -267 50 -335 7 -16 23 -57 35 -90 13 -33 27 -64 31 -69 4 -5
5 -15 2 -22 -7 -18 37 -93 103 -176 84 -104 253 -245 375 -312 49 -27 59 -37
74 -79 10 -27 26 -56 36 -66 22 -20 43 -147 34 -202 -5 -31 -10 -36 -27 -31
-11 3 -24 -1 -29 -9 -4 -8 -14 -14 -21 -15 -33 -3 -38 -5 -38 -20 0 -11 -5
-14 -16 -10 -12 4 -35 -12 -76 -54 -53 -53 -60 -64 -56 -92 4 -28 4 -29 -8
-13 -7 10 -11 22 -8 26 9 16 -56 10 -81 -7 -14 -9 -25 -24 -25 -33 0 -29 79
-89 99 -76 5 3 11 0 13 -5 2 -6 10 -12 18 -14 8 -2 22 -6 30 -9 87 -35 424
-79 724 -93 126 -6 130 -7 155 -35 14 -15 43 -35 63 -44 42 -17 246 -41 443
-51 101 -5 142 -11 185 -29 77 -32 163 -44 415 -56 138 -6 240 -16 273 -26 43
-12 84 -14 195 -9 147 6 461 17 580 21 49 1 75 7 94 21 69 52 36 108 -82 138
-38 9 -108 29 -154 42 -46 14 -92 26 -102 27 -13 1 -19 9 -19 25 0 12 -7 36
-15 52 -23 44 -10 115 26 141 26 19 29 19 29 3 0 -28 82 -97 144 -122 32 -13
61 -20 64 -18 3 3 -7 35 -23 71 -19 45 -41 78 -73 105 l-45 40 46 49 c152 163
267 466 267 706 0 73 -22 223 -41 283 -10 29 -8 36 20 67 50 58 64 94 69 180
6 116 -12 214 -64 340 -52 125 -53 130 -89 245 -42 133 -148 277 -276 375 -14
11 -29 34 -33 50 -12 47 -44 75 -87 75 -20 0 -42 7 -49 15 -8 9 -30 15 -57 15
-24 0 -55 7 -68 16 -13 8 -35 14 -48 12 -13 -1 -41 9 -63 23 -56 37 -226 118
-261 125 -29 6 -30 8 -26 47 5 49 -38 157 -66 164 -15 4 -16 17 -13 98 3 64
-1 117 -12 168 -21 91 -82 221 -129 274 -30 32 -37 50 -45 108 -6 39 -13 78
-17 87 -5 13 0 21 19 29 26 12 35 29 15 29 -6 0 -19 -5 -30 -10 -30 -16 -25
18 8 52 29 31 21 37 -16 12 -30 -22 -53 -3 -29 23 17 18 35 73 24 73 -3 0 -12
-13 -21 -30 -9 -16 -19 -30 -23 -30 -4 0 -23 23 -41 51 -66 97 -222 197 -386
249 -104 32 -285 37 -384 10z m249 -5 c192 -21 417 -145 511 -282 16 -23 25
-43 19 -43 -19 0 -10 -18 13 -25 13 -4 17 -8 10 -12 -17 -6 -16 -23 1 -23 18
0 29 -27 13 -33 -8 -3 -7 -9 5 -18 17 -15 38 -78 38 -117 0 -19 -3 -21 -19
-12 -39 20 -33 9 26 -52 70 -74 123 -165 153 -266 19 -61 22 -91 19 -195 -4
-119 -5 -125 -42 -201 -49 -98 -145 -202 -232 -251 -35 -19 -66 -35 -69 -35
-13 0 27 85 65 140 24 33 40 62 37 65 -3 3 -15 -9 -26 -28 -12 -18 -44 -55
-72 -83 -27 -27 -50 -54 -50 -61 0 -17 -93 -97 -153 -131 -248 -140 -691 -184
-988 -97 -118 34 -221 96 -314 190 -99 99 -147 189 -176 332 -32 153 -15 365
29 376 9 3 29 8 44 11 19 4 30 15 34 31 7 29 -12 59 -33 51 -22 -9 -15 10 25
61 79 99 161 164 292 230 36 18 57 33 48 33 -32 0 41 109 137 205 98 99 190
154 350 210 73 26 188 46 225 39 8 -1 44 -6 80 -9z m-782 -343 c3 -11 0 -12
-18 -2 -19 10 -25 9 -39 -5 -15 -17 -15 -17 3 -11 21 7 49 -11 40 -26 -4 -7
-9 -6 -14 1 -8 14 -40 4 -40 -12 0 -6 8 -19 18 -30 16 -19 16 -20 -5 -8 -12 6
-24 19 -28 30 -7 22 9 67 27 74 21 9 51 3 56 -11z m-363 -451 c-12 -11 -156
-43 -163 -36 -8 8 -1 11 68 27 75 19 108 22 95 9z m-8 -37 c-3 -3 -12 -4 -19
-1 -8 3 -5 6 6 6 11 1 17 -2 13 -5z m-208 -21 c-1 -14 -110 -94 -121 -91 -6 2
15 25 48 51 58 45 75 54 73 40z m91 -3 c-34 -11 -60 -11 -35 0 11 5 29 8 40 8
16 0 15 -2 -5 -8z m14 -72 c-18 -68 -18 -202 1 -306 8 -45 17 -87 20 -92 3 -6
1 -10 -4 -10 -6 0 -20 -20 -32 -44 -11 -24 -41 -62 -67 -83 -26 -22 -74 -77
-107 -122 l-60 -82 -31 36 -32 36 15 47 c9 30 13 73 10 120 -4 72 5 96 33 90
14 -3 37 30 81 120 28 56 31 71 26 121 -2 32 -12 72 -21 88 l-15 31 44 36 c48
40 98 65 131 66 20 0 21 -1 8 -52z m-299 -8 c23 -9 25 -13 15 -25 -15 -18 -51
-20 -67 -4 -8 8 -16 8 -30 0 -17 -10 -17 -10 3 -11 11 0 29 -7 40 -15 17 -13
16 -14 -20 -9 -22 2 -47 11 -56 19 -9 8 -25 12 -38 8 -36 -9 -25 14 16 30 43
19 100 21 137 7z m41 -46 c-30 -21 -45 -16 -16 6 14 10 27 16 30 13 3 -2 -4
-11 -14 -19z m-161 -33 c94 -54 171 -159 175 -242 4 -63 -3 -74 -10 -18 -11
87 -43 143 -118 204 -35 30 -78 57 -93 60 -33 8 -49 25 -22 25 10 0 41 -13 68
-29z m185 25 c0 -2 -8 -10 -17 -17 -16 -13 -17 -12 -4 4 13 16 21 21 21 13z
m-276 -25 c22 -24 18 -80 -7 -95 -13 -8 -25 -7 -49 7 -22 13 -33 15 -38 7 -11
-17 -22 18 -14 44 17 55 74 74 108 37z m325 -19 c6 -21 13 -54 16 -73 4 -30 4
-31 -4 -7 -5 15 -19 41 -31 58 -12 17 -19 37 -16 45 10 26 25 16 35 -23z
m-174 -77 c66 -66 102 -169 71 -208 -13 -16 -16 -15 -49 18 -20 20 -37 49 -41
69 -7 35 -25 50 -51 40 -11 -4 -19 3 -26 25 -10 30 -12 30 -37 16 -48 -26 -72
-53 -72 -80 0 -15 -17 -49 -40 -80 -42 -57 -50 -85 -25 -85 20 0 19 -4 -10
-55 -28 -47 -21 -65 17 -42 20 13 28 13 56 1 29 -13 31 -16 21 -37 -6 -12 -19
-30 -28 -40 -18 -21 -57 -45 -47 -29 9 15 -45 79 -94 112 -25 16 -39 30 -32
30 22 0 62 48 62 75 0 14 -6 38 -14 54 -19 36 -6 57 34 53 49 -6 72 22 70 83
-4 79 -4 78 29 59 25 -15 35 -16 56 -6 29 14 49 56 40 89 l-5 22 37 -22 c21
-12 56 -40 78 -62z m-318 15 c32 -19 67 -72 61 -92 -2 -6 -10 -4 -20 5 -14 15
-17 15 -28 1 -11 -12 -10 -13 5 -8 15 6 16 5 4 -14 -19 -30 1 -51 25 -27 17
18 19 16 10 -9 -7 -18 -36 -21 -65 -6 -10 6 -30 32 -44 58 -20 37 -25 41 -22
20 2 -15 0 -25 -4 -22 -5 3 -9 -2 -9 -10 0 -8 7 -19 16 -24 9 -5 14 -16 13
-26 -3 -14 -8 -13 -31 9 -22 20 -28 35 -28 66 0 89 48 122 117 79z m463 -60
c0 -5 -5 -10 -11 -10 -5 0 -7 5 -4 10 3 6 8 10 11 10 2 0 4 -4 4 -10z m-260
-30 c0 -5 -4 -10 -9 -10 -6 0 -13 5 -16 10 -3 6 1 10 9 10 9 0 16 -4 16 -10z
m-67 -35 c-3 -9 -8 -14 -10 -11 -3 3 -2 9 2 15 9 16 15 13 8 -4z m2651 -50
l29 -66 -19 -40 c-27 -60 -142 -153 -333 -268 -57 -34 -125 -69 -150 -77 -25
-9 -181 -82 -346 -164 -264 -130 -400 -190 -435 -190 -5 0 -10 18 -10 40 0 63
-77 169 -143 195 -22 9 -38 17 -36 19 10 8 163 -14 228 -34 75 -22 106 -21 55
2 l-28 13 44 6 c40 6 132 20 230 35 22 4 -26 -25 -130 -76 -179 -89 -176 -87
-168 -95 3 -3 104 43 224 102 121 59 253 121 294 138 41 16 95 43 121 61 26
17 78 43 116 58 38 14 103 46 145 71 91 53 178 150 235 262 21 40 40 73 43 73
3 0 18 -29 34 -65z m-2630 33 c-6 -21 -6 -22 12 -8 10 8 4 -4 -15 -27 -32 -42
-42 -49 -54 -37 -5 5 52 92 61 94 2 0 0 -10 -4 -22z m83 16 c-3 -3 -12 -4 -19
-1 -8 3 -5 6 6 6 11 1 17 -2 13 -5z m-333 -45 c58 -46 80 -135 38 -158 -19
-11 -100 55 -119 97 -8 18 -12 21 -13 10 0 -10 -5 -18 -11 -18 -8 0 -8 -5 1
-15 10 -13 9 -15 -9 -15 -24 0 -27 22 -11 67 21 56 76 70 124 32z m350 -7 c2
-4 1 -14 -4 -22 -7 -11 -11 -12 -25 0 -13 10 -13 15 -3 21 17 11 26 11 32 1z
m-54 -9 c0 -16 -47 -66 -58 -62 -6 2 0 17 16 36 26 31 42 41 42 26z m82 -42
c-3 -23 1 -30 17 -36 25 -8 44 2 35 18 -3 7 1 4 9 -6 52 -64 13 -264 -60 -312
-25 -17 -26 -19 -8 -25 16 -6 14 -11 -24 -49 -57 -57 -154 -101 -223 -101 -38
0 -49 -3 -38 -10 39 -25 152 0 228 52 40 28 102 100 102 120 0 5 7 20 16 33
l16 24 29 -34 30 -34 -55 -111 c-62 -124 -118 -292 -140 -418 -8 -46 -16 -86
-19 -89 -9 -8 -78 36 -125 81 -63 59 -136 161 -181 252 -48 98 -58 129 -40
122 68 -26 84 -13 19 16 -22 9 -55 35 -74 57 -38 45 -54 84 -30 75 8 -3 14 -1
14 4 0 6 -5 10 -10 10 -18 0 -69 91 -76 136 -7 51 8 103 40 133 31 29 94 38
121 17 19 -15 19 -17 3 -27 -22 -12 -24 -59 -4 -59 8 0 22 10 30 22 13 18 16
19 16 6 0 -9 -8 -24 -17 -33 -16 -17 -41 -16 -102 1 -17 5 -22 4 -17 -4 4 -7
2 -12 -4 -12 -6 0 -8 -5 -5 -11 4 -6 19 -10 33 -9 45 3 48 1 76 -38 34 -49 92
-82 144 -82 35 0 50 8 104 54 48 42 64 51 67 38 2 -10 11 0 25 28 13 29 27 44
37 42 12 -2 15 5 11 30 -4 32 -4 32 13 13 16 -20 16 -20 10 5 -15 59 -17 110
-5 125 17 20 17 20 12 -14z m33 0 c-3 -6 -11 -11 -17 -11 -6 0 -6 6 2 15 14
17 26 13 15 -4z m-215 -72 c0 -35 4 -42 46 -67 38 -24 43 -31 30 -41 -12 -10
-16 -8 -21 8 -3 12 -15 21 -26 21 -11 0 -22 7 -25 15 -5 13 -11 12 -40 -6 -39
-24 -41 -21 -14 23 26 42 27 80 3 71 -16 -6 -16 -4 1 15 26 30 46 12 46 -39z
m50 31 c0 -5 -2 -10 -4 -10 -3 0 -8 5 -11 10 -3 6 -1 10 4 10 6 0 11 -4 11
-10z m591 -67 c35 -70 149 -201 204 -234 l30 -19 -30 -1 c-24 0 -17 -5 35 -24
36 -12 85 -32 110 -42 l45 -20 -38 -12 c-30 -10 -41 -10 -52 -1 -17 14 -21 0
-5 -16 14 -14 -7 -64 -26 -64 -21 0 -159 129 -234 219 -64 78 -130 184 -130
210 0 21 16 11 27 -16 11 -27 12 -26 6 9 -5 38 3 78 16 78 4 0 23 -30 42 -67z
m-511 5 c0 -6 -6 -5 -15 2 -8 7 -15 14 -15 16 0 2 7 1 15 -2 8 -4 15 -11 15
-16z m2670 -19 c44 -17 80 -33 80 -37 0 -3 -10 -17 -22 -30 -23 -26 -9 -22 27
7 14 11 12 7 -4 -12 -29 -32 -21 -35 18 -6 50 37 52 11 3 -39 -26 -27 -56 -64
-66 -84 -10 -19 -28 -40 -38 -47 -18 -11 -18 -10 -7 11 7 13 23 38 37 56 13
17 20 32 14 32 -15 0 -58 -58 -76 -102 -12 -27 -26 -40 -66 -57 -47 -20 -56
-21 -136 -10 -47 6 -121 9 -164 7 -71 -3 -77 -1 -69 14 11 21 11 28 0 28 -5 0
-14 -13 -20 -30 -10 -31 -34 -43 -25 -12 3 11 0 9 -7 -4 -6 -11 -29 -30 -52
-41 -66 -32 -164 -109 -189 -148 -16 -23 -31 -35 -46 -35 -14 0 -39 -15 -59
-35 -33 -33 -34 -38 -32 -97 1 -40 -6 -92 -19 -142 -12 -44 -22 -93 -22 -110
0 -42 -90 -146 -126 -146 -16 0 -27 -8 -33 -22 -5 -14 -10 -17 -15 -10 -4 7
-20 12 -35 12 -22 0 -35 10 -61 48 -18 26 -42 57 -53 69 -20 22 -20 22 -47 3
-14 -10 -79 -65 -144 -120 -65 -56 -119 -100 -120 -98 -2 1 -47 77 -101 168
-54 91 -102 169 -106 174 -4 5 -69 -45 -145 -110 -75 -65 -146 -127 -158 -136
l-22 -17 -59 190 c-32 105 -62 192 -66 195 -9 5 -86 -55 -186 -147 -42 -38
-80 -66 -84 -62 -4 5 -30 91 -59 193 l-52 186 31 79 c63 164 173 339 268 426
l46 42 25 -49 c79 -155 307 -391 389 -402 18 -3 26 5 39 38 17 42 68 80 85 63
5 -5 15 -26 22 -48 8 -21 18 -40 24 -42 5 -2 26 10 47 26 33 27 40 28 69 19
38 -13 93 -62 114 -103 9 -16 15 -49 14 -73 -1 -33 3 -44 16 -49 10 -3 25 -12
34 -20 25 -21 147 28 513 208 177 86 352 172 390 190 99 48 266 160 333 224
32 30 62 54 66 55 4 0 44 -14 87 -31z m-3030 -9 c0 -5 -5 -10 -11 -10 -5 0 -7
5 -4 10 3 6 8 10 11 10 2 0 4 -4 4 -10z m105 -76 c20 -20 40 -45 46 -55 8 -16
6 -19 -13 -19 -27 0 -93 42 -107 69 -7 12 -6 22 1 29 20 20 37 14 73 -24z
m3130 -18 c19 -13 18 -14 -5 -10 -14 3 -42 -4 -62 -14 -44 -23 -40 -9 6 19 37
23 37 23 61 5z m110 -36 c6 -10 -16 -51 -49 -87 -16 -19 -76 -34 -76 -19 0 2
-3 12 -7 21 -6 16 -4 16 21 0 21 -14 30 -15 39 -6 16 16 -4 46 -32 45 -28 -1
-27 10 5 35 28 22 88 28 99 11z m-139 -22 c-9 -12 -16 -30 -16 -40 0 -26 -20
-33 -38 -13 -16 16 -16 17 6 10 19 -6 22 -3 22 23 0 27 9 39 33 41 5 1 1 -9
-7 -21z m254 2 c12 -8 11 -12 -7 -32 -12 -13 -29 -40 -38 -61 -17 -42 -42 -48
-69 -18 -21 23 -14 60 20 96 24 26 66 33 94 15z m-337 -19 c-5 -18 -33 -38
-33 -24 0 6 30 43 36 43 1 0 0 -9 -3 -19z m445 -17 c23 -16 30 -44 11 -44 -5
0 -8 4 -4 9 3 5 1 12 -4 15 -5 3 -12 -6 -16 -21 -9 -37 -43 -83 -69 -93 -53
-20 -73 35 -35 97 32 51 77 66 117 37z m-428 -39 c7 -8 22 -15 34 -15 12 0 27
-5 33 -11 15 -15 69 -14 88 1 10 8 15 9 15 1 0 -20 39 -51 65 -51 13 0 35 -11
49 -25 14 -14 32 -25 41 -25 26 0 89 37 103 59 7 12 18 21 25 21 24 0 128 -92
187 -166 72 -90 99 -141 133 -249 14 -44 45 -130 70 -190 50 -124 62 -174 72
-291 10 -110 -10 -178 -65 -228 -58 -52 -104 -51 -165 5 -92 85 -110 183 -80
432 19 154 16 218 -4 102 -46 -264 -39 -410 25 -504 30 -44 30 -44 -101 -110
-126 -63 -280 -119 -348 -126 -50 -5 -56 -3 -146 53 -78 47 -96 63 -103 89
-10 38 -62 93 -88 93 -11 0 -35 16 -54 35 -40 40 -68 44 -90 14 -8 -12 -19
-19 -24 -16 -5 4 -19 -1 -31 -10 -18 -12 -22 -22 -18 -47 4 -28 2 -31 -20 -33
-49 -2 -57 -52 -16 -95 15 -16 32 -49 39 -73 l11 -45 -29 0 c-94 0 -307 86
-412 166 -53 40 -123 128 -159 200 -69 136 -83 322 -36 487 l10 38 39 -40 c89
-91 230 -53 230 63 0 58 -60 141 -121 167 -16 6 -29 17 -29 24 0 17 84 93 148
134 106 68 198 82 382 60 76 -10 107 -9 155 1 51 12 56 15 33 19 -26 6 -24 8
43 54 77 51 90 55 109 32z m-1731 -130 c3 -3 -6 -17 -20 -31 l-25 -25 -12 37
-11 36 31 -6 c18 -3 34 -9 37 -11z m845 -205 c34 -12 38 -60 5 -60 -31 0 -59
18 -59 39 0 32 13 37 54 21z m-76 -82 c7 -7 12 -19 12 -27 0 -8 11 -29 25 -46
13 -18 21 -35 18 -39 -3 -3 2 -16 13 -28 10 -13 1 -7 -20 12 -38 36 -76 97
-76 125 0 18 12 19 28 3z m-1794 -344 c42 -127 92 -248 105 -252 6 -2 55 33
110 77 55 45 102 81 104 81 2 0 17 -35 32 -77 25 -73 95 -213 128 -258 16 -21
-2 -35 234 180 l71 65 40 -72 c49 -87 124 -195 182 -261 l43 -49 76 74 c42 41
109 103 149 138 l73 63 30 -29 c50 -47 113 -143 157 -236 l41 -88 -102 0
c-255 0 -641 37 -854 80 -217 45 -373 94 -544 173 l-76 35 -17 84 c-19 92 -34
358 -20 358 5 0 22 -39 38 -86z m1618 -121 c14 -16 30 -37 36 -48 10 -19 8
-20 -22 -17 -44 5 -58 -14 -50 -72 4 -25 11 -46 16 -46 5 0 6 5 2 12 -5 8 -2
9 9 5 21 -8 21 -3 1 28 -34 51 17 77 55 29 23 -29 27 -65 10 -96 -6 -11 -8
-23 -4 -26 11 -11 35 29 35 57 0 25 3 24 43 -20 23 -25 64 -72 91 -103 l48
-57 -36 -79 c-20 -43 -44 -120 -53 -169 -10 -50 -22 -91 -28 -91 -5 0 -44 35
-85 78 -68 70 -121 149 -150 226 -9 25 -8 28 7 22 14 -6 14 -3 -3 16 -33 36
-46 66 -32 70 8 3 3 16 -15 37 -19 23 -27 44 -27 70 0 24 -8 47 -20 61 -24 28
-26 48 -4 57 17 6 36 -15 30 -33 -2 -6 5 -16 15 -22 27 -17 26 10 -2 55 -17
27 -19 36 -9 48 7 8 16 15 21 15 15 0 49 -44 49 -64 1 -20 1 -20 15 -3 8 12
11 31 8 53 -7 43 12 46 49 7z m907 -229 c11 -14 23 -34 26 -45 4 -10 12 -19
20 -19 7 0 16 -8 19 -17 6 -15 9 -15 16 -3 6 9 3 18 -8 27 -12 8 -13 12 -4 13
21 0 62 -47 68 -79 5 -25 24 -42 113 -98 60 -38 143 -103 192 -150 47 -46 89
-83 93 -83 5 0 -12 23 -36 52 l-43 52 39 -29 c30 -22 38 -25 33 -12 -7 20 -9
19 118 67 44 16 139 62 210 101 l130 71 40 -13 c39 -14 40 -16 52 -79 20 -108
17 -159 -11 -185 -14 -13 -32 -48 -41 -81 -9 -33 -39 -108 -67 -167 -62 -131
-70 -185 -39 -251 26 -53 24 -59 -51 -151 -49 -60 -162 -165 -177 -165 -5 0
-6 11 -3 25 5 31 -5 75 -18 75 -6 0 -10 -32 -10 -73 0 -64 -7 -103 -36 -197
-7 -23 -6 -24 10 -10 16 13 20 12 32 -5 31 -41 18 -60 -87 -126 -111 -69 -181
-99 -240 -102 l-54 -2 2 39 c2 33 1 36 -12 26 -8 -7 -15 -24 -15 -37 0 -22 -3
-24 -27 -18 -48 11 -58 28 -39 66 23 46 19 49 -14 9 l-30 -34 0 36 c0 28 7 42
30 61 45 39 71 44 88 18 22 -32 35 -25 17 9 -26 50 -17 54 30 11 43 -39 65
-51 65 -33 0 5 -10 14 -23 21 -51 27 -87 109 -87 199 0 33 -4 51 -10 47 -5 -3
-10 -17 -10 -29 0 -29 -21 -36 -107 -36 -72 0 -242 31 -297 54 -53 22 -68 20
-29 -4 29 -17 91 -38 166 -54 27 -7 28 -9 26 -62 -2 -32 2 -59 9 -66 16 -16
15 -60 -2 -83 -11 -16 -32 -21 -107 -27 -52 -4 -128 -16 -170 -27 -96 -25
-123 -20 -115 21 4 21 2 28 -7 26 -6 -3 -13 -15 -15 -27 -2 -14 -9 -21 -20
-19 -21 4 -28 44 -12 64 8 9 9 14 2 14 -6 0 -18 -10 -26 -22 -16 -22 -16 -22
-16 8 0 19 9 39 23 52 40 37 117 56 117 29 0 -8 9 -22 20 -32 24 -22 26 -13 4
21 -24 35 -12 39 31 9 21 -14 45 -25 54 -25 12 1 12 3 -4 12 -69 37 -122 119
-132 199 l-6 49 31 -11 c52 -18 60 -4 11 18 -115 51 -232 150 -297 251 -76
119 -120 301 -107 444 9 108 68 318 89 318 1 0 25 -21 52 -46 101 -93 271
-165 476 -199 48 -8 102 -64 124 -127 10 -31 29 -59 52 -78 56 -46 68 -36 17
13 -51 50 -62 80 -16 47 33 -23 101 -53 101 -45 0 3 -19 18 -42 33 -82 52
-110 77 -164 147 -54 72 -96 168 -88 202 3 12 -7 30 -30 52 -20 19 -36 43 -36
52 0 27 31 32 62 9 l28 -21 0 24 c0 14 -7 30 -15 37 -20 16 -19 56 1 64 10 4
26 -5 44 -24 17 -18 31 -26 35 -20 3 6 -1 17 -9 26 -9 8 -16 24 -16 35 0 28
35 24 59 -7z m-2417 -107 c86 -38 392 -133 548 -171 276 -66 375 -78 690 -82
l285 -4 37 -37 c21 -21 38 -40 38 -43 0 -13 -173 -41 -326 -52 -122 -9 -196
-9 -334 1 -224 15 -232 18 -208 56 4 6 -11 10 -37 10 -41 0 -43 -1 -28 -17 15
-17 15 -18 -3 -18 -70 0 -341 88 -468 152 -164 82 -210 114 -234 163 -21 44
-27 65 -17 65 2 0 28 -10 57 -23z m1433 -770 c4 -27 13 -40 29 -47 22 -8 24
-16 31 -118 8 -119 -1 -152 -41 -152 -12 0 -24 -7 -28 -15 -3 -8 -14 -15 -25
-15 -11 0 -25 -10 -32 -21 -6 -12 -14 -17 -18 -12 -3 6 -37 13 -76 16 -38 3
-104 11 -145 18 -41 6 -83 12 -92 13 -21 0 -21 2 -19 166 1 69 6 139 12 155
l11 30 190 -4 189 -3 -5 38 c-5 31 -4 34 3 14 5 -14 12 -42 16 -63z m-592 -26
c69 -6 133 -8 142 -5 15 6 15 -3 9 -82 -7 -88 -12 -111 -21 -86 -7 19 -23 14
-23 -7 0 -16 -10 -21 -47 -27 -69 -10 -82 -10 -142 -1 -52 7 -151 52 -151 67
0 4 -3 23 -6 41 -6 28 -4 32 7 22 7 -7 24 -13 39 -13 25 1 25 1 -5 16 -22 11
-24 13 -8 10 33 -6 39 12 7 20 -16 4 -29 2 -34 -5 -4 -7 -11 13 -16 46 l-10
58 66 -22 c41 -14 113 -26 193 -32z m943 -48 c15 -27 61 -80 101 -120 40 -40
73 -77 73 -83 0 -48 -301 -35 -402 16 -16 8 -28 21 -28 30 0 8 4 13 9 9 5 -3
12 -1 16 5 3 6 0 13 -9 16 -20 8 -36 57 -36 110 l0 44 58 1 c31 0 80 4 107 9
28 4 57 8 67 9 9 0 27 -18 44 -46z m-1072 -175 c63 -19 204 -16 245 5 38 19
57 13 26 -9 -76 -56 -291 -36 -367 33 -31 28 -19 33 18 8 20 -14 55 -30 78
-37z m926 -63 c83 -21 223 -30 280 -17 52 13 66 7 24 -8 -64 -25 -181 -35
-255 -22 -84 14 -163 50 -167 75 -4 17 -2 17 25 4 16 -9 58 -23 93 -32z m400
-38 c1 -37 10 -71 34 -128 6 -14 2 -16 -26 -10 -32 7 -33 9 -34 56 -1 46 -11
92 -29 139 -8 17 -6 17 24 2 27 -15 31 -22 31 -59z m1227 -19 c18 -20 63 -99
63 -112 0 -12 -86 32 -111 57 -35 34 -36 50 -6 65 31 15 31 15 54 -10z m-2246
-11 c-10 -9 -11 -8 -5 6 3 10 9 15 12 12 3 -3 0 -11 -7 -18z m-753 -32 c-3 -3
-9 2 -12 12 -6 14 -5 15 5 6 7 -7 10 -15 7 -18z m-48 -20 c0 -5 -5 -3 -10 5
-5 8 -10 20 -10 25 0 6 5 3 10 -5 5 -8 10 -19 10 -25z m1095 26 c3 -5 2 -12
-3 -15 -5 -3 -9 1 -9 9 0 17 3 19 12 6z m1355 -75 c6 -19 8 -45 5 -59 -7 -25
-7 -25 -103 -20 -55 2 -102 10 -108 16 -6 7 -9 31 -7 55 l5 42 98 0 98 0 12
-34z m-1795 -16 c-27 -12 -43 -12 -25 0 8 5 22 9 30 9 10 0 8 -3 -5 -9z m382
-27 c-3 -10 -5 -4 -5 12 0 17 2 24 5 18 2 -7 2 -21 0 -30z m-470 11 c-3 -3
-12 -4 -19 -1 -8 3 -5 6 6 6 11 1 17 -2 13 -5z m-84 -11 c-7 -2 -21 -2 -30 0
-10 3 -4 5 12 5 17 0 24 -2 18 -5z m1306 4 c-2 -1 -13 -9 -24 -17 -19 -14 -19
-14 -6 3 7 9 18 17 24 17 6 0 8 -1 6 -3z m-54 -37 c-3 -5 -14 -10 -23 -9 -14
0 -13 2 3 9 27 11 27 11 20 0z m-65 -24 c0 -3 -4 -8 -10 -11 -5 -3 -10 -1 -10
4 0 6 5 11 10 11 6 0 10 -2 10 -4z m-111 -20 c-2 -2 -20 -6 -39 -10 -25 -4
-31 -3 -20 4 14 9 69 15 59 6z m-382 -12 c-3 -3 -12 -4 -19 -1 -8 3 -5 6 6 6
11 1 17 -2 13 -5z m116 -11 c-7 -2 -21 -2 -30 0 -10 3 -4 5 12 5 17 0 24 -2
18 -5z"/>
<path d="M2885 5328 c-33 -18 -45 -40 -45 -84 0 -31 7 -51 24 -70 20 -24 31
-28 75 -27 28 0 61 7 73 15 15 9 39 13 65 10 37 -3 46 0 73 27 26 25 31 37 28
68 -2 20 -8 38 -14 40 -6 2 -8 -10 -6 -32 6 -47 -27 -85 -72 -85 -29 0 -31 3
-31 33 0 25 -4 32 -20 32 -16 0 -20 -7 -20 -30 0 -16 -3 -35 -8 -42 -11 -18
-82 -26 -109 -12 -44 23 -52 59 -14 59 16 0 27 7 31 21 8 26 -8 39 -39 31 -21
-5 -21 -5 -2 16 12 14 31 22 50 22 24 0 27 3 16 10 -19 12 -30 12 -55 -2z m15
-68 c0 -5 -7 -10 -16 -10 -8 0 -12 5 -9 10 3 6 10 10 16 10 5 0 9 -4 9 -10z
m144 -35 c-4 -8 -8 -15 -10 -15 -2 0 -4 7 -4 15 0 8 4 15 10 15 5 0 7 -7 4
-15z"/>
<path d="M2760 5150 c0 -5 16 -10 36 -10 21 0 33 4 29 10 -3 6 -19 10 -36 10
-16 0 -29 -4 -29 -10z"/>
<path d="M3010 5130 c0 -5 6 -10 14 -10 7 0 29 -3 47 -6 32 -5 33 -5 15 10
-22 18 -76 22 -76 6z"/>
<path d="M3564 5130 c-25 -10 -64 -57 -64 -76 0 -23 14 -15 35 19 17 27 27 33
64 35 34 3 49 -2 67 -19 57 -54 8 -149 -78 -149 -41 -1 -42 -2 -23 -16 11 -8
19 -17 18 -19 -2 -3 -3 -12 -3 -20 0 -24 25 -17 40 10 7 14 16 25 20 25 17 0
68 63 74 91 16 83 -70 152 -150 119z"/>
<path d="M3578 5079 c-38 -21 -46 -79 -11 -79 10 0 12 -6 8 -19 -4 -14 0 -21
15 -26 25 -8 53 12 46 32 -3 7 -1 13 4 13 20 0 9 26 -17 37 -31 15 -41 10 -24
-11 11 -13 9 -13 -12 -3 -23 11 -23 12 -6 30 14 16 21 17 39 7 23 -12 40 -6
24 9 -16 16 -49 20 -66 10z"/>
<path d="M2716 5065 c-8 -21 3 -43 24 -50 15 -5 16 -11 8 -38 -18 -59 30 -122
78 -103 16 6 16 8 1 23 -9 9 -20 13 -24 9 -4 -4 -1 -11 7 -16 8 -6 10 -10 4
-10 -15 0 -40 30 -48 57 -16 52 43 95 95 69 30 -15 38 -9 17 13 -11 10 -9 11
7 5 18 -7 19 -6 6 10 -13 15 -13 19 0 27 10 6 11 9 1 9 -7 0 -23 -6 -35 -14
-12 -8 -32 -17 -44 -20 -18 -6 -21 -4 -16 16 6 22 5 22 -14 6 -28 -25 -57 -24
-50 2 6 23 -8 27 -17 5z"/>
<path d="M2981 5048 c-7 -20 -8 -35 -2 -41 5 -5 7 -16 4 -24 -5 -12 -1 -14 18
-8 30 9 86 62 76 72 -4 3 -13 1 -19 -5 -22 -22 -48 -14 -48 13 0 35 -16 31
-29 -7z"/>
<path d="M2925 4961 c-3 -6 -1 -19 5 -30 12 -23 3 -51 -16 -51 -8 0 -14 -4
-14 -10 0 -17 28 -11 43 10 17 24 17 82 0 87 -6 2 -14 -1 -18 -6z"/>
<path d="M3116 4899 c-14 -17 -26 -34 -26 -38 0 -3 -19 -7 -42 -7 -24 0 -70
-12 -103 -27 -98 -43 -172 -34 -248 29 -16 13 -42 24 -58 24 -21 0 -29 5 -30
18 -1 9 -6 2 -12 -17 -6 -19 -28 -52 -49 -74 -40 -42 -43 -56 -9 -38 17 9 22
7 36 -17 19 -32 64 -63 120 -83 22 -7 53 -23 68 -33 26 -19 29 -19 60 -3 18 9
58 20 90 23 61 7 61 8 57 -49 -1 -18 4 -29 16 -34 22 -8 44 21 44 59 0 21 6
31 25 38 14 5 25 15 25 22 1 7 12 0 25 -17 33 -40 39 -28 12 26 -32 64 -29
115 10 177 36 57 29 69 -11 21z m-429 -63 c82 -68 170 -76 277 -27 69 33 91
37 101 21 18 -29 -65 -75 -164 -91 -87 -13 -163 0 -238 42 -65 36 -71 20 -8
-20 60 -38 153 -55 254 -46 50 4 81 3 85 -3 9 -15 -5 -21 -59 -29 -28 -3 -61
-1 -86 7 -32 11 -45 11 -60 2 -27 -17 -68 -14 -116 8 -84 37 -112 88 -77 138
20 29 55 28 91 -2z"/>
<path d="M2846 4912 c-2 -4 2 -15 9 -26 15 -20 37 -14 29 9 -6 16 -31 27 -38
17z"/>
<path d="M2886 4627 c-14 -11 -16 -19 -9 -47 12 -47 41 -47 57 1 7 19 11 40 8
47 -5 16 -34 15 -56 -1z"/>
<path d="M2650 4551 c0 -5 5 -13 10 -16 6 -3 10 -2 10 4 0 5 -4 13 -10 16 -5
3 -10 2 -10 -4z"/>
<path d="M3037 4543 c-4 -3 -7 -24 -7 -45 0 -31 4 -38 20 -38 24 0 36 40 20
69 -11 22 -22 26 -33 14z"/>
<path d="M3460 4485 c0 -22 -4 -56 -10 -74 -13 -47 -4 -52 15 -8 17 41 19 85
5 107 -7 11 -10 4 -10 -25z"/>
<path d="M2399 4334 c-22 -27 -18 -128 6 -155 22 -24 74 -49 104 -49 11 0 33
-13 49 -29 49 -49 122 -62 209 -36 46 14 109 52 101 61 -2 2 -31 -8 -64 -21
-76 -31 -165 -34 -211 -5 -25 15 -36 32 -45 65 -14 52 -28 59 -28 15 0 -28 -2
-30 -27 -24 -72 16 -107 80 -85 151 13 43 11 50 -9 27z"/>
<path d="M2400 4132 c0 -23 44 -62 83 -73 23 -6 51 -19 62 -29 34 -30 62 -40
112 -40 35 0 44 3 33 10 -8 5 -29 10 -47 10 -18 0 -43 10 -60 24 -38 31 -67
46 -92 46 -11 0 -36 14 -56 31 -19 17 -35 27 -35 21z"/>
<path d="M2451 4024 c5 -24 61 -52 124 -61 66 -9 52 10 -19 26 -30 7 -67 22
-81 33 -26 20 -27 20 -24 2z"/>
<path d="M3528 3900 c-20 -21 -56 -49 -80 -61 -29 -16 -38 -24 -26 -27 24 -5
73 23 119 69 36 36 49 59 32 59 -5 -1 -25 -18 -45 -40z"/>
<path d="M3045 3910 c4 -6 11 -8 16 -5 14 9 11 15 -7 15 -8 0 -12 -5 -9 -10z"/>
<path d="M2580 3900 c0 -21 94 -29 106 -9 5 8 -2 10 -21 7 -15 -3 -41 -2 -56
2 -16 5 -29 5 -29 0z"/>
<path d="M3068 3873 c7 -3 16 -2 19 1 4 3 -2 6 -13 5 -11 0 -14 -3 -6 -6z"/>
<path d="M1516 4432 c-3 -5 -1 -14 3 -20 6 -10 10 -10 20 1 9 12 8 16 -3 20
-9 4 -17 3 -20 -1z"/>
<path d="M1543 4391 c-10 -15 -9 -22 1 -30 18 -15 51 10 43 33 -9 22 -29 20
-44 -3z"/>
<path d="M1539 4163 l-24 -28 28 24 c25 23 32 31 24 31 -2 0 -14 -12 -28 -27z"/>
<path d="M1310 4109 c0 -5 5 -7 10 -4 6 3 10 8 10 11 0 2 -4 4 -10 4 -5 0 -10
-5 -10 -11z"/>
<path d="M1336 4074 c-13 -12 -14 -20 -6 -28 13 -13 45 4 45 24 0 21 -21 23
-39 4z"/>
<path d="M1740 4070 c-8 -5 -12 -11 -9 -14 2 -3 11 -1 19 4 8 5 12 11 9 14 -2
3 -11 1 -19 -4z"/>
<path d="M1236 4015 c-9 -26 -7 -32 5 -12 6 10 9 21 6 23 -2 3 -7 -2 -11 -11z"/>
<path d="M1737 3913 c-10 -9 -9 -23 2 -23 5 0 11 7 15 15 5 15 -5 20 -17 8z"/>
<path d="M1180 3900 c0 -5 6 -10 14 -10 8 0 18 5 21 10 3 6 -3 10 -14 10 -12
0 -21 -4 -21 -10z"/>
<path d="M2150 3972 c0 -13 80 -135 86 -130 2 3 -16 35 -41 72 -25 37 -45 63
-45 58z"/>
<path d="M4325 3909 c-11 -17 1 -21 15 -4 8 9 8 15 2 15 -6 0 -14 -5 -17 -11z"/>
<path d="M4285 3816 c-15 -19 -25 -41 -23 -47 2 -6 16 8 32 31 34 52 28 64 -9
16z"/>
<path d="M4130 3785 c-7 -9 -8 -15 -2 -15 5 0 12 7 16 15 3 8 4 15 2 15 -2 0
-9 -7 -16 -15z"/>
<path d="M4180 3750 c-6 -11 -8 -20 -6 -20 3 0 10 9 16 20 6 11 8 20 6 20 -3
0 -10 -9 -16 -20z"/>
<path d="M4572 3844 c-10 -12 -10 -14 2 -14 17 0 30 16 19 23 -5 3 -14 -1 -21
-9z"/>
<path d="M4704 3832 c3 -5 0 -13 -6 -15 -9 -4 -10 -6 -1 -6 17 -1 25 16 12 25
-7 4 -9 3 -5 -4z"/>
<path d="M4637 3774 c-9 -10 22 -44 40 -44 23 0 11 45 -12 48 -12 2 -24 0 -28
-4z"/>
<path d="M4734 3719 c-8 -13 24 -41 41 -36 5 2 10 12 10 23 0 22 -39 32 -51
13z"/>
<path d="M4287 3639 c15 -15 93 -24 93 -11 0 12 -34 22 -74 22 -22 0 -27 -3
-19 -11z"/>
<path d="M4496 3561 c-8 -12 74 -82 85 -75 5 3 9 9 9 14 0 14 -88 71 -94 61z"/>
<path d="M5123 3190 c-3 -10 -11 -16 -17 -14 -24 9 -33 -21 -49 -161 -21 -174
-21 -227 -1 -295 22 -74 38 -95 91 -120 54 -25 79 -21 127 21 43 37 61 109 53
219 -5 79 -24 147 -77 274 -33 79 -30 76 -104 91 -11 2 -20 -3 -23 -15z"/>
<path d="M3201 2653 c-2 -41 59 -76 96 -54 16 9 15 10 -10 11 -37 0 -66 16
-77 43 l-9 22 0 -22z"/>
<path d="M3220 2582 c0 -14 26 -22 68 -21 l37 1 -35 8 c-19 4 -43 11 -52 15
-10 4 -18 3 -18 -3z"/>
<path d="M3275 2410 c3 -5 12 -10 20 -10 8 0 17 5 20 10 4 6 -5 10 -20 10 -15
0 -24 -4 -20 -10z"/>
<path d="M3298 2383 c7 -3 16 -2 19 1 4 3 -2 6 -13 5 -11 0 -14 -3 -6 -6z"/>
<path d="M4230 2290 c-13 -8 -13 -10 2 -10 9 0 20 5 23 10 8 13 -5 13 -25 0z"/>
<path d="M4240 2250 c-13 -8 -13 -10 2 -10 9 0 20 5 23 10 8 13 -5 13 -25 0z"/>
<path d="M4267 2219 c-10 -6 -27 -9 -38 -6 -22 6 -26 -8 -4 -17 17 -6 60 8 70
23 8 14 -5 14 -28 0z"/>
<path d="M4270 2180 c-8 -5 -11 -12 -7 -16 4 -4 15 0 24 9 18 18 8 23 -17 7z"/>
<path d="M4190 2076 c0 -18 54 -76 71 -76 7 0 -1 15 -19 33 -18 18 -32 38 -32
45 0 7 -4 12 -10 12 -5 0 -10 -6 -10 -14z"/>
<path d="M3915 1340 c3 -5 14 -10 23 -10 15 0 15 2 2 10 -20 13 -33 13 -25 0z"/>
<path d="M3910 1315 c7 -8 20 -15 29 -15 13 1 13 3 -3 15 -26 19 -42 19 -26 0z"/>
<path d="M3887 1304 c6 -16 47 -37 65 -32 7 1 -5 12 -28 23 -23 12 -40 16 -37
9z"/>
<path d="M4535 1260 c3 -5 13 -10 21 -10 8 0 12 5 9 10 -3 6 -13 10 -21 10 -8
0 -12 -4 -9 -10z"/>
<path d="M4530 1235 c7 -8 20 -15 29 -15 13 1 13 3 -3 15 -26 19 -42 19 -26 0z"/>
<path d="M2442 2268 c2 -18 10 -23 33 -23 23 0 31 5 33 23 4 26 -3 28 -26 5
-16 -16 -17 -16 -20 0 -5 26 -24 20 -20 -5z"/>
<path d="M2398 1723 c6 -2 18 -2 25 0 6 3 1 5 -13 5 -14 0 -19 -2 -12 -5z"/>
<path d="M2400 1621 c0 -12 28 -22 35 -12 3 5 -2 12 -11 15 -21 8 -24 8 -24
-3z"/>
<path d="M3325 1620 c3 -5 18 -10 33 -10 21 0 24 2 12 10 -20 13 -53 13 -45 0z"/>
<path d="M3322 1595 c9 -10 21 -16 28 -13 7 2 -1 10 -16 17 -27 12 -28 11 -12
-4z"/>
<path d="M5391 3644 c-13 -16 -21 -41 -21 -63 0 -43 17 -108 30 -116 15 -9
108 45 136 78 42 50 26 107 -31 107 -18 0 -37 5 -40 10 -12 19 -53 10 -74 -16z"/>
<path d="M5234 3561 c-9 -10 -23 -17 -29 -14 -7 2 -20 -6 -29 -18 -18 -26 -9
-50 10 -25 8 11 20 16 31 12 13 -4 21 1 28 17 8 17 18 22 43 20 43 -2 37 21
-6 25 -21 2 -36 -3 -48 -17z"/>
</g>
</svg>
